<?xml version="1.0" encoding="utf-8"?>
<!-- Generator: Adobe Illustrator 15.0.2, SVG Export Plug-In . SVG Version: 6.00 Build 0)  -->
<!DOCTYPE svg PUBLIC "-//W3C//DTD SVG 1.1//EN" "http://www.w3.org/Graphics/SVG/1.1/DTD/svg11.dtd">
<svg version="1.1" id="レイヤー_1" xmlns="http://www.w3.org/2000/svg" xmlns:xlink="http://www.w3.org/1999/xlink" x="0px"
	 y="0px" width="1024px" height="1024px" viewBox="0 0 1024 1024" enable-background="new 0 0 1024 1024" xml:space="preserve">
<g>
	<path d="M401.469,402.486c9.312-2.352,16.417-9.792,17.377-19.394l-0.096-0.096c-1.824,2.88-4.032,4.8-8.017,4.8
		c-5.616,0-8.017-4.752-8.017-8.401c0-4.032,2.976-10.513,10.417-10.513c7.057,0,10.129,6.384,10.129,12.241
		c0,14.881-16.417,22.274-21.362,22.322L401.469,402.486z M412.894,384.917c3.024,0,5.953-1.968,5.953-5.185
		c0-4.56-1.44-9.312-6.097-9.312c-4.176,0-5.904,3.504-5.904,7.249C406.845,381.364,408.813,384.917,412.894,384.917z"/>
</g>
</svg>
