<?xml version="1.0" encoding="utf-8"?>
<!-- Generator: Adobe Illustrator 15.0.2, SVG Export Plug-In . SVG Version: 6.00 Build 0)  -->
<!DOCTYPE svg PUBLIC "-//W3C//DTD SVG 1.1//EN" "http://www.w3.org/Graphics/SVG/1.1/DTD/svg11.dtd">
<svg version="1.1" id="レイヤー_1" xmlns="http://www.w3.org/2000/svg" xmlns:xlink="http://www.w3.org/1999/xlink" x="0px"
	 y="0px" width="1024px" height="1024px" viewBox="0 0 1024 1024" enable-background="new 0 0 1024 1024" xml:space="preserve">
<g>
	<path d="M64.943,20.533c-18.623,4.704-32.83,19.583-34.75,38.781l0.192,0.192c3.648-5.759,8.063-9.599,16.031-9.599
		c11.231,0,16.031,9.503,16.031,16.799c0,8.063-5.952,21.022-20.831,21.022c-14.111,0-20.255-12.767-20.255-24.478
		c0-29.758,32.83-44.541,42.717-44.637L64.943,20.533z M42.097,55.667c-6.048,0-11.903,3.936-11.903,10.367
		c0,9.119,2.88,18.623,12.191,18.623c8.352,0,11.808-7.007,11.808-14.495C54.192,62.77,50.256,55.667,42.097,55.667z"/>
</g>
</svg>
