<?xml version="1.0" encoding="utf-8"?>
<!-- Generator: Adobe Illustrator 15.0.2, SVG Export Plug-In . SVG Version: 6.00 Build 0)  -->
<!DOCTYPE svg PUBLIC "-//W3C//DTD SVG 1.1//EN" "http://www.w3.org/Graphics/SVG/1.1/DTD/svg11.dtd">
<svg version="1.1" id="レイヤー_1" xmlns="http://www.w3.org/2000/svg" xmlns:xlink="http://www.w3.org/1999/xlink" x="0px"
	 y="0px" width="1024px" height="1024px" viewBox="0 0 1024 1024" enable-background="new 0 0 1024 1024" xml:space="preserve">
<g>
	<path d="M85.491,24.642c-18.623,4.704-32.83,19.583-34.75,38.781l0.192,0.192c3.648-5.759,8.063-9.599,16.031-9.599
		c11.231,0,16.031,9.503,16.031,16.799c0,8.063-5.952,21.022-20.831,21.022c-14.111,0-20.255-12.767-20.255-24.478
		c0-29.758,32.83-44.541,42.717-44.637L85.491,24.642z M62.645,59.776c-6.048,0-11.903,3.936-11.903,10.367
		c0,9.119,2.88,18.623,12.191,18.623c8.352,0,11.807-7.007,11.807-14.495C74.739,66.879,70.804,59.776,62.645,59.776z"/>
</g>
<g>
	<path d="M184.17,56.25c6.72,3.648,14.111,10.271,14.111,18.527c0,10.367-9.215,18.431-19.391,18.431
		c-12.191,0-18.238-8.927-18.238-15.551c0-8.832,6.239-13.439,14.015-17.951c-6.047-4.128-12.671-9.215-12.671-17.279
		c0-11.135,7.68-18.335,18.623-18.335c9.215,0,17.087,5.376,17.087,15.071C197.706,47.227,190.506,52.794,184.17,56.25z
		 M176.587,61.241c-6.911,5.375-8.831,9.312-8.831,16.991c0,6.432,4.319,11.903,11.039,11.903c7.007,0,11.231-4.992,11.231-11.711
		C190.026,70.553,182.635,64.889,176.587,61.241z M180.427,26.588c-6.624,0-10.751,4.992-10.751,12.095
		c0,7.583,6.623,12.479,12.287,16.319c4.991-3.648,8.639-8.255,8.639-15.455C190.602,31.675,185.994,26.588,180.427,26.588z"/>
</g>
</svg>
